<?xml version="1.0" encoding="UTF-8" standalone="no"?><svg width="16px" height="11px" viewBox="0 0 16 11" version="1.1" xmlns="http://www.w3.org/2000/svg" xmlns:xlink="http://www.w3.org/1999/xlink" xmlns:sketch="http://www.bohemiancoding.com/sketch/ns">        <title>eye</title>    <desc>Created with Sketch.</desc>    <defs></defs>    <g id="Page-1" stroke="none" stroke-width="1" fill="none" fill-rule="evenodd" sketch:type="MSPage">        <g id="icon_life" sketch:type="MSArtboardGroup" transform="translate(-67.000000, -52.000000)" fill="#ADB7C1">            <path d="M82.8352889,57.2565085 C82.8352889,57.2565085 79.3574222,52 74.9391111,52 C70.5208,52 67.0429333,57.2565085 67.0429333,57.2565085 C66.9856889,57.3394746 66.9856889,57.4752034 67.0429333,57.5570508 C67.0429333,57.5570508 70.5208,62.8135593 74.9391111,62.8135593 C79.3574222,62.8135593 82.8352889,57.5570508 82.8352889,57.5570508 C82.8925333,57.4740847 82.8925333,57.3383559 82.8352889,57.2565085 L82.8352889,57.2565085 Z M74.9391111,59.7372881 C73.7488889,59.7372881 72.7839111,58.6939661 72.7839111,57.4067797 C72.7839111,56.1195932 73.7488889,55.0762712 74.9391111,55.0762712 C76.1293333,55.0762712 77.0943111,56.1195932 77.0943111,57.4067797 C77.0943111,58.6939661 76.1293333,59.7372881 74.9391111,59.7372881 L74.9391111,59.7372881 Z" id="eye" sketch:type="MSShapeGroup"></path>        </g>    </g></svg>